g 
v -15.7209606 0.404357612 -4.84492207
v -15.7241325 3.45476675 -4.49444962
v -13.9110527 1.85958743 -4.3851161
v -12.3277998 0.487166166 -4.61476803
v -15.7889509 6.75889206 -3.94154978
v -14.0895424 4.97673321 -3.70707083
v -12.3566322 3.21906853 -3.71358967
v -10.689189 1.87066054 -4.01336718
v -8.82455063 0.443732023 -3.98797941
v -15.6211491 10.1385412 -3.36911058
v -14.097414 8.4050684 -3.1420188
v -12.4483042 6.60393 -3.12616253
v -10.76649 4.95106649 -3.16010475
v -9.18927097 3.36535788 -3.38347578
v -7.41553926 1.92861533 -3.54077148
v -5.42778492 0.404471159 -3.58437967
v -15.6811666 13.3409719 -3.34621048
v -14.0685005 11.5978556 -3.18110609
v -12.5124559 9.9459343 -2.66272163
v -10.7593937 8.25125313 -2.59888315
v -9.23815155 6.69370842 -2.55435467
v -7.50288963 5.08572721 -2.63897753
v -5.79042864 3.48114657 -2.82475567
v -3.92663717 1.71637678 -3.08520961
v -2.3375597 0.371323109 -3.24360967
v -15.42663 16.4741898 -3.58178329
v -14.0443926 14.9063339 -2.85214376
v -12.4814539 13.1910715 -2.41204262
v -10.8801031 11.6164503 -2.18019962
v -9.16624737 9.8648243 -2.07874775
v -7.63296795 8.2737751 -1.96518564
v -5.95077848 6.67383242 -2.00679803
v -4.23885441 4.97256279 -2.11943245
v -2.5292635 3.33746624 -2.46839738
v -0.858627319 1.68425465 -2.68537545
v 0.77253294 0.335258961 -2.87287974
v -12.2624521 16.4085617 -2.51284313
v -10.8409996 14.8292637 -1.9960134
v -9.33263206 13.1827669 -1.68995035
v -7.50744724 11.4067354 -1.6023066
v -5.99477291 9.77077007 -1.35945535
v -4.35557461 8.20284176 -1.33306003
v -2.62548828 6.49154043 -1.44561791
v -0.848371983 4.87905788 -1.55985534
v 0.606022835 3.23604965 -1.93926454
v -9.13553333 16.3429337 -1.51157892
v -7.54869509 14.8225937 -1.11235261
v -5.81304789 13.1035547 -0.866530657
v -4.22894859 11.498765 -0.668906569
v -2.67026711 9.75689316 -0.667608857
v -1.18552446 8.04067421 -0.733918011
v 0.438142687 6.22279978 -0.955803156
v -5.96982145 16.2773018 -0.637192249
v -4.2627306 14.7730017 -0.265752077
v -2.73184252 12.9884014 -0.17507565
v -1.25683939 11.2337513 -0.0829255581
v 0.206229478 9.45458889 -0.147270322
v -2.85965824 16.2116737 0.202069163
v -1.15019941 14.6799164 0.525686741
v 0.017261833 12.9073009 0.537620306
v -0.178336412 15.9737291 1.11767745
vt 0.137724429 0.0638515875 0
vt 0.208406597 0.148021862 0
vt 0.137600556 0.240286797 0
vt 0.201436073 0.328317106 0
vt 0.135069206 0.431396902 0
vt 0.201128647 0.526611507 0
vt 0.141622365 0.626875281 0
vt 0.202257812 0.711281836 0
vt 0.139278501 0.812103391 0
vt 0.203199297 0.90264374 0
vt 0.149218887 0.993328273 0
vt 0.137600556 0.240286797 0
vt 0.208406597 0.148021862 0
vt 0.269111246 0.226654053 0
vt 0.201436073 0.328317106 0
vt 0.208406597 0.148021862 0
vt 0.270237237 0.068641223 0
vt 0.334229767 0.148662329 0
vt 0.269111246 0.226654053 0
vt 0.172203422 1.89785504 0
vt 0.210157514 1.82302129 0
vt 0.164564744 1.72049344 0
vt 0.214322105 1.62369549 0
vt 0.157185003 1.52078915 0
vt 0.211537048 1.43900836 0
vt 0.148128122 1.33386278 0
vt 0.198370278 1.25614107 0
vt 0.141571909 1.16110969 0
vt 0.198770761 1.07135403 0
vt 0.135069206 0.993328273 0
vt 0.198770761 1.07135403 0
vt 0.256527394 0.995414257 0
vt 0.318585485 1.07321215 0
vt 0.377209693 0.99733144 0
vt 0.454837263 1.08548784 0
vt 0.509863317 0.999602377 0
vt 0.582682788 1.0821358 0
vt 0.646675348 1.00211453 0
vt 0.708506048 1.08149529 0
vt 0.779188156 0.997325003 0
vt 0.135069206 0.431396902 0
vt 0.201436073 0.328317106 0
vt 0.265531182 0.422433913 0
vt 0.201128647 0.526611507 0
vt 0.201436073 0.328317106 0
vt 0.269111246 0.226654053 0
vt 0.331210911 0.326832563 0
vt 0.265531182 0.422433913 0
vt 0.269111246 0.226654053 0
vt 0.334229767 0.148662329 0
vt 0.392805934 0.235115409 0
vt 0.331210911 0.326832563 0
vt 0.334229767 0.148662329 0
vt 0.407049358 0.066128999 0
vt 0.462075293 0.152014434 0
vt 0.392805934 0.235115409 0
vt 0.141622365 0.626875281 0
vt 0.201128647 0.526611507 0
vt 0.26302588 0.615734994 0
vt 0.202257812 0.711281836 0
vt 0.201128647 0.526611507 0
vt 0.265531182 0.422433913 0
vt 0.331488073 0.517714858 0
vt 0.26302588 0.615734994 0
vt 0.265531182 0.422433913 0
vt 0.331210911 0.326832563 0
vt 0.390897036 0.427626699 0
vt 0.331488073 0.517714858 0
vt 0.331210911 0.326832563 0
vt 0.392805934 0.235115409 0
vt 0.45866406 0.33462131 0
vt 0.390897036 0.427626699 0
vt 0.392805934 0.235115409 0
vt 0.462075293 0.152014434 0
vt 0.52554065 0.241812587 0
vt 0.45866406 0.33462131 0
vt 0.462075293 0.152014434 0
vt 0.539702892 0.0638581589 0
vt 0.59832716 0.139738575 0
vt 0.52554065 0.241812587 0
vt 0.139278501 0.812103391 0
vt 0.202257812 0.711281836 0
vt 0.264236599 0.80343318 0
vt 0.203199297 0.90264374 0
vt 0.202257812 0.711281836 0
vt 0.26302588 0.615734994 0
vt 0.326774001 0.712357283 0
vt 0.264236599 0.80343318 0
vt 0.26302588 0.615734994 0
vt 0.331488073 0.517714858 0
vt 0.39370507 0.611043572 0
vt 0.326774001 0.712357283 0
vt 0.331488073 0.517714858 0
vt 0.390897036 0.427626699 0
vt 0.453584135 0.519017518 0
vt 0.39370507 0.611043572 0
vt 0.390897036 0.427626699 0
vt 0.45866406 0.33462131 0
vt 0.519278526 0.426477075 0
vt 0.453584135 0.519017518 0
vt 0.45866406 0.33462131 0
vt 0.52554065 0.241812587 0
vt 0.586134136 0.328075886 0
vt 0.519278526 0.426477075 0
vt 0.52554065 0.241812587 0
vt 0.59832716 0.139738575 0
vt 0.65289861 0.23350215 0
vt 0.586134136 0.328075886 0
vt 0.59832716 0.139738575 0
vt 0.660385191 0.0619408786 0
vt 0.718141854 0.137880653 0
vt 0.65289861 0.23350215 0
vt 0.203199297 0.90264374 0
vt 0.264236599 0.80343318 0
vt 0.328301132 0.898186028 0
vt 0.27278924 0.989532351 0
vt 0.264236599 0.80343318 0
vt 0.326774001 0.712357283 0
vt 0.38720727 0.802952826 0
vt 0.328301132 0.898186028 0
vt 0.326774001 0.712357283 0
vt 0.39370507 0.611043572 0
vt 0.45848608 0.700227439 0
vt 0.38720727 0.802952826 0
vt 0.39370507 0.611043572 0
vt 0.453584135 0.519017518 0
vt 0.517560422 0.605603456 0
vt 0.45848608 0.700227439 0
vt 0.453584135 0.519017518 0
vt 0.519278526 0.426477075 0
vt 0.581575871 0.514914751 0
vt 0.517560422 0.605603456 0
vt 0.519278526 0.426477075 0
vt 0.586134136 0.328075886 0
vt 0.649140775 0.415933341 0
vt 0.581575871 0.514914751 0
vt 0.586134136 0.328075886 0
vt 0.65289861 0.23350215 0
vt 0.718542278 0.322667569 0
vt 0.649140775 0.415933341 0
vt 0.65289861 0.23350215 0
vt 0.718141854 0.137880653 0
vt 0.775340736 0.227636218 0
vt 0.718542278 0.322667569 0
vt 0.149218887 0.993328273 0
vt 0.203199297 0.90264374 0
vt 0.27278924 0.989532351 0
vt 0.328301132 0.898186028 0
vt 0.394904554 0.98573643 0
vt 0.456875205 0.897800207 0
vt 0.518534839 0.981940329 0
vt 0.585201681 0.894931793 0
vt 0.639995754 0.978144407 0
vt 0.706755102 0.889547765 0
vt 0.744709194 0.964381635 0
vt 0.328301132 0.898186028 0
vt 0.38720727 0.802952826 0
vt 0.456875205 0.897800207 0
vt 0.394904554 0.98573643 0
vt 0.38720727 0.802952826 0
vt 0.45848608 0.700227439 0
vt 0.524657249 0.798371196 0
vt 0.456875205 0.897800207 0
vt 0.45848608 0.700227439 0
vt 0.517560422 0.605603456 0
vt 0.58652097 0.705550432 0
vt 0.524657249 0.798371196 0
vt 0.517560422 0.605603456 0
vt 0.581575871 0.514914751 0
vt 0.647392035 0.60480082 0
vt 0.58652097 0.705550432 0
vt 0.581575871 0.514914751 0
vt 0.649140775 0.415933341 0
vt 0.705375552 0.505535007 0
vt 0.647392035 0.60480082 0
vt 0.649140775 0.415933341 0
vt 0.718542278 0.322667569 0
vt 0.768784463 0.400389403 0
vt 0.705375552 0.505535007 0
vt 0.456875205 0.897800207 0
vt 0.524657249 0.798371196 0
vt 0.585201681 0.894931793 0
vt 0.518534839 0.981940329 0
vt 0.524657249 0.798371196 0
vt 0.58652097 0.705550432 0
vt 0.644987285 0.791710794 0
vt 0.585201681 0.894931793 0
vt 0.58652097 0.705550432 0
vt 0.647392035 0.60480082 0
vt 0.702590466 0.690222085 0
vt 0.644987285 0.791710794 0
vt 0.647392035 0.60480082 0
vt 0.705375552 0.505535007 0
vt 0.759727538 0.587315559 0
vt 0.702590466 0.690222085 0
vt 0.585201681 0.894931793 0
vt 0.644987285 0.791710794 0
vt 0.706755102 0.889547765 0
vt 0.639995754 0.978144407 0
vt 0.644987285 0.791710794 0
vt 0.702590466 0.690222085 0
vt 0.752347827 0.787019968 0
vt 0.706755102 0.889547765 0
vt 0.706755102 0.889547765 0
vt 0.752347827 0.787019968 0
vt 0.744709194 0.964381635 0
vt 0.752347827 0.787019968 0
vt 0.702590466 0.690222085 0
vt 0.759727538 0.587315559 0
vt 0.759727538 0.587315559 0
vt 0.705375552 0.505535007 0
vt 0.768784463 0.400389403 0
vt 0.768784463 0.400389403 0
vt 0.718542278 0.322667569 0
vt 0.775340736 0.227636218 0
vt 0.775340736 0.227636218 0
vt 0.718141854 0.137880653 0
vt 0.781843364 0.0598549321 0
vt 0.149218887 0.993328273 0
vt 0.203199297 0.90264374 0
vt 0.27278924 0.989532351 0
vt 0.27278924 0.989532351 0
vt 0.328301132 0.898186028 0
vt 0.394904554 0.98573643 0
vt 0.394904554 0.98573643 0
vt 0.456875205 0.897800207 0
vt 0.518534839 0.981940329 0
vt 0.518534839 0.981940329 0
vt 0.585201681 0.894931793 0
vt 0.639995754 0.978144407 0
vt 0.639995754 0.978144407 0
vt 0.706755102 0.889547765 0
vt 0.744709194 0.964381635 0
vt 0.137724429 0.0638515875 0
vt 0.208406597 0.148021862 0
vt 0.137600556 0.240286797 0
vt 0.137600556 0.240286797 0
vt 0.201436073 0.328317106 0
vt 0.135069206 0.431396902 0
vt 0.135069206 0.431396902 0
vt 0.201128647 0.526611507 0
vt 0.141622365 0.626875281 0
vt 0.141622365 0.626875281 0
vt 0.202257812 0.711281836 0
vt 0.139278501 0.812103391 0
vt 0.139278501 0.812103391 0
vt 0.203199297 0.90264374 0
vt 0.149218887 0.993328273 0
vt 0.137724429 0.0638515875 0
vt 0.270237237 0.068641223 0
vt 0.208406597 0.148021862 0
vt 0.270237237 0.068641223 0
vt 0.407049358 0.066128999 0
vt 0.334229767 0.148662329 0
vt 0.407049358 0.066128999 0
vt 0.539702892 0.0638581589 0
vt 0.462075293 0.152014434 0
vt 0.539702892 0.0638581589 0
vt 0.660385191 0.0619408786 0
vt 0.59832716 0.139738575 0
vt 0.660385191 0.0619408786 0
vt 0.781843364 0.0598549321 0
vt 0.718141854 0.137880653 0
vn -0.361869216 -0.0707356557 0.929541349
vn -0.334857851 -0.139463976 0.931890547
vn -0.26752466 -0.172316134 0.948017716
vn -0.0999891683 -0.248312756 0.963505566
vn -0.371508777 -0.131144151 0.919120371
vn -0.316533834 -0.155616567 0.935729563
vn -0.148362622 -0.243955925 0.958370507
vn -0.121070907 -0.249865606 0.960681498
vn -0.142507315 -0.174760669 0.974243462
vn -0.32125029 -0.0488144942 0.945735455
vn -0.315581501 -0.0974323526 0.943883061
vn -0.184139699 -0.158813298 0.969985068
vn -0.140380889 -0.212080106 0.967116952
vn -0.128432766 -0.25053224 0.959551215
vn -0.132664859 -0.222477868 0.965869367
vn -0.112073913 -0.208418757 0.971597254
vn -0.354670078 -0.0136747882 0.934891462
vn -0.312034816 -0.0427508764 0.949108362
vn -0.215184018 -0.0810250342 0.97320646
vn -0.175769761 -0.14310208 0.973974705
vn -0.167496413 -0.189578027 0.967473686
vn -0.153198391 -0.244962499 0.9573524
vn -0.141139463 -0.268453121 0.952896953
vn -0.116730802 -0.262056559 0.957966745
vn -0.105035096 -0.25723666 0.960623205
vn -0.405753762 0.0648284182 0.91168046
vn -0.361527562 0.035572812 0.931682527
vn -0.265903443 -0.0423015282 0.963071108
vn -0.217976928 -0.0938541442 0.97143054
vn -0.191845194 -0.12389113 0.973574102
vn -0.192769319 -0.16477865 0.967309594
vn -0.171664879 -0.226367414 0.958795667
vn -0.153781354 -0.273403227 0.949527264
vn -0.14379026 -0.296960622 0.944001496
vn -0.137244165 -0.324933559 0.93572551
vn -0.122641966 -0.324312955 0.93796593
vn -0.29290697 0.0733087137 0.953326404
vn -0.268249124 0.00833410956 0.96331352
vn -0.221823335 -0.0890181661 0.971014977
vn -0.223853752 -0.123614036 0.966751873
vn -0.220749184 -0.155082077 0.962922394
vn -0.189296946 -0.214647472 0.958171725
vn -0.176212922 -0.261120439 0.949086428
vn -0.158070445 -0.319543004 0.934294343
vn -0.142390057 -0.346655935 0.927121758
vn -0.281698257 0.00542050274 0.959487677
vn -0.260595798 -0.0479477569 0.964256644
vn -0.242186278 -0.117803186 0.963051438
vn -0.223931372 -0.146457076 0.963537753
vn -0.198062405 -0.191944391 0.961212039
vn -0.189263761 -0.228751838 0.954909325
vn -0.146445334 -0.286525756 0.946813941
vn -0.268785447 -0.0296674091 0.962743044
vn -0.255921066 -0.0675321817 0.964335859
vn -0.231579781 -0.138981223 0.962836981
vn -0.236304715 -0.150723562 0.959917963
vn -0.201495096 -0.195436195 0.959793866
vn -0.285486072 -0.0773508176 0.955256283
vn -0.322690964 -0.0863852426 0.942554057
vn -0.307528198 -0.147951499 0.939966261
vn -0.391809911 -0.0310750008 0.919521272
g 
l 1/1/1 3/2/3 2/3/2 6/4/6 5/5/5 11/6/11 10/7/10 18/8/18 17/9/17 27/10/27 26/11/26
f 2/12/2 3/13/3 7/14/7 6/15/6
f 3/16/3 4/17/4 8/18/8 7/19/7
l 61/20/61 59/21/59 60/22/60 56/23/56 57/24/57 51/25/51 52/26/52 44/27/44 45/28/45 35/29/35 36/30/36 35/31/35 25/32/25 24/33/24 16/34/16 15/35/15 9/36/9 8/37/8 4/38/4 3/39/3 1/40/1
f 5/41/5 6/42/6 12/43/12 11/44/11
f 6/45/6 7/46/7 13/47/13 12/48/12
f 7/49/7 8/50/8 14/51/14 13/52/13
f 8/53/8 9/54/9 15/55/15 14/56/14
f 10/57/10 11/58/11 19/59/19 18/60/18
f 11/61/11 12/62/12 20/63/20 19/64/19
f 12/65/12 13/66/13 21/67/21 20/68/20
f 13/69/13 14/70/14 22/71/22 21/72/21
f 14/73/14 15/74/15 23/75/23 22/76/22
f 15/77/15 16/78/16 24/79/24 23/80/23
f 17/81/17 18/82/18 28/83/28 27/84/27
f 18/85/18 19/86/19 29/87/29 28/88/28
f 19/89/19 20/90/20 30/91/30 29/92/29
f 20/93/20 21/94/21 31/95/31 30/96/30
f 21/97/21 22/98/22 32/99/32 31/100/31
f 22/101/22 23/102/23 33/103/33 32/104/32
f 23/105/23 24/106/24 34/107/34 33/108/33
f 24/109/24 25/110/25 35/111/35 34/112/34
f 27/113/27 28/114/28 38/115/38 37/116/37
f 28/117/28 29/118/29 39/119/39 38/120/38
f 29/121/29 30/122/30 40/123/40 39/124/39
f 30/125/30 31/126/31 41/127/41 40/128/40
f 31/129/31 32/130/32 42/131/42 41/132/41
f 32/133/32 33/134/33 43/135/43 42/136/42
f 33/137/33 34/138/34 44/139/44 43/140/43
f 34/141/34 35/142/35 45/143/45 44/144/44
l 26/145/26 27/146/27 37/147/37 38/148/38 46/149/46 47/150/47 53/151/53 54/152/54 58/153/58 59/154/59 61/155/61
f 38/156/38 39/157/39 47/158/47 46/159/46
f 39/160/39 40/161/40 48/162/48 47/163/47
f 40/164/40 41/165/41 49/166/49 48/167/48
f 41/168/41 42/169/42 50/170/50 49/171/49
f 42/172/42 43/173/43 51/174/51 50/175/50
f 43/176/43 44/177/44 52/178/52 51/179/51
f 47/180/47 48/181/48 54/182/54 53/183/53
f 48/184/48 49/185/49 55/186/55 54/187/54
f 49/188/49 50/189/50 56/190/56 55/191/55
f 50/192/50 51/193/51 57/194/57 56/195/56
f 54/196/54 55/197/55 59/198/59 58/199/58
f 55/200/55 56/201/56 60/202/60 59/203/59
f 59/204/59 60/205/60 61/206/61
f 60/207/60 56/208/56 57/209/57
f 57/210/57 51/211/51 52/212/52
f 52/213/52 44/214/44 45/215/45
f 45/216/45 35/217/35 36/218/36
f 26/219/26 27/220/27 37/221/37
f 37/222/37 38/223/38 46/224/46
f 46/225/46 47/226/47 53/227/53
f 53/228/53 54/229/54 58/230/58
f 58/231/58 59/232/59 61/233/61
f 1/234/1 3/235/3 2/236/2
f 2/237/2 6/238/6 5/239/5
f 5/240/5 11/241/11 10/242/10
f 10/243/10 18/244/18 17/245/17
f 17/246/17 27/247/27 26/248/26
f 1/249/1 4/250/4 3/251/3
f 4/252/4 9/253/9 8/254/8
f 9/255/9 16/256/16 15/257/15
f 16/258/16 25/259/25 24/260/24
f 25/261/25 36/262/36 35/263/35
