g 
v -0.0728574693 14.8957376 0.846639991
v 0.742579997 13.2901001 -0.124411993
v 1.31782997 11.1850004 -1.14212
v 1.63812006 9.66740036 -1.74144995
v 1.80112004 8.35519981 -2.21109009
v 1.92822003 6.84959984 -2.64795995
v 1.94442999 5.93721008 -2.84776998
v 1.86205995 4.68941021 -3.10198927
v 1.79245937 3.4821701 -3.19905567
v 1.54714 2.33100009 -3.14154935
v 1.30592 1.25995004 -3.09773993
v 0.775143445 0.237893999 -2.89555979
v 0.686234057 1.13462996 -2.47964668
v 0.605884433 2.0341301 -2.19606018
v 0.59632647 3.09961009 -1.90608275
v 0.530809999 4.27565002 -1.56787527
v 0.481936008 5.17835999 -1.28982449
v 0.4532758 6.13670015 -0.983123362
v 0.369912982 7.06163979 -0.716624022
v 0.329138666 7.8324399 -0.556851983
v 0.263914168 8.66127968 -0.316983998
v 0.194970921 9.50708008 -0.0885640979
v 0.137774929 10.2912998 0.101454869
v 0.0851293206 11.2557001 0.301315993
v 0.0508228168 12.1000004 0.435346991
v -0.00729637593 12.9469995 0.632718325
v -0.0593444034 13.8632002 0.775136173
v -0.0911567211 14.5593004 0.855079055
vt 0.501712561 0.901585996 0
vt 0.496391594 0.883324623 0
vt 0.491032183 0.844183564 0
vt 0.486149251 0.792096972 0
vt 0.485474825 0.742977858 0
vt 0.481173038 0.694805145 0
vt 0.478977144 0.639059246 0
vt 0.478779912 0.593314409 0
vt 0.47991246 0.543650508 0
vt 0.48193115 0.494785547 0
vt 0.480776489 0.450241268 0
vt 0.483654618 0.3967278 0
vt 0.486272514 0.339044988 0
vt 0.489347994 0.286296874 0
vt 0.493469596 0.217254832 0
vt 0.49583143 0.156613454 0
vt 0.50049001 0.106096894 0
vt 0.507997811 0.0618418455 0
vt 0.534447134 0.100154847 0
vt 0.553268075 0.157517865 0
vt 0.574056447 0.220542386 0
vt 0.581623375 0.288100719 0
vt 0.587672114 0.359340668 0
vt 0.589219868 0.412131488 0
vt 0.585511386 0.500815272 0
vt 0.577075779 0.579406381 0
vt 0.560406029 0.672624052 0
vt 0.535048068 0.800508738 0
vn 0.75301528 -0.123303175 0.646346927
vn 0.75301528 -0.123303175 0.646346927
vn 0.75301528 -0.123303175 0.646346927
vn 0.75301528 -0.123303175 0.646346927
vn 0.75301528 -0.123303175 0.646346927
vn 0.75301528 -0.123303175 0.646346927
vn 0.75301528 -0.123303175 0.646346927
vn 0.75301528 -0.123303175 0.646346927
vn 0.75301528 -0.123303175 0.646346927
vn 0.75301528 -0.123303175 0.646346927
vn 0.75301528 -0.123303175 0.646346927
vn 0.75301528 -0.123303175 0.646346927
vn 0.75301528 -0.123303175 0.646346927
vn 0.75301528 -0.123303175 0.646346927
vn 0.75301528 -0.123303175 0.646346927
vn 0.75301528 -0.123303175 0.646346927
vn 0.75301528 -0.123303175 0.646346927
vn 0.75301528 -0.123303175 0.646346927
vn 0.75301528 -0.123303175 0.646346927
vn 0.75301528 -0.123303175 0.646346927
vn 0.75301528 -0.123303175 0.646346927
vn 0.75301528 -0.123303175 0.646346927
vn 0.75301528 -0.123303175 0.646346927
vn 0.75301528 -0.123303175 0.646346927
vn 0.75301528 -0.123303175 0.646346927
vn 0.75301528 -0.123303175 0.646346927
vn 0.75301528 -0.123303175 0.646346927
vn 0.75301528 -0.123303175 0.646346927
g 
f 1/1/1 28/2/28 27/3/27 26/4/26 25/5/25 24/6/24 23/7/23 22/8/22 21/9/21 20/10/20 19/11/19 18/12/18 17/13/17 16/14/16 15/15/15 14/16/14 13/17/13 12/18/12 11/19/11 10/20/10 9/21/9 8/22/8 7/23/7 6/24/6 5/25/5 4/26/4 3/27/3 2/28/2
